<svg width="221" height="36" viewBox="0 0 221 36" fill="none" xmlns="http://www.w3.org/2000/svg">
<path d="M108.513 9.35695H106.381V27.3436H108.513V9.35695Z" fill="#1AA4D6"/>
<path d="M201.139 6.01471C202.479 6.01471 203.572 4.91934 203.572 3.58068C203.572 2.23785 202.479 1.14552 201.139 1.14552C199.801 1.14552 198.711 2.23785 198.711 3.58068C198.711 4.91934 199.801 6.01471 201.139 6.01471Z" fill="#1AA4D6"/>
<path d="M107.368 2.07158C106.696 2.07158 106.152 2.61851 106.152 3.28727C106.152 3.96058 106.696 4.50789 107.368 4.50789C108.035 4.50789 108.581 3.96058 108.581 3.28727C108.581 2.61851 108.035 2.07158 107.368 2.07158Z" fill="#1AA4D6"/>
<path d="M211.899 14.9511C211.899 13.3464 212.183 12.1007 213.784 12.1007C215.383 12.1007 215.671 13.3464 215.671 14.9511V27.3433H220.416V13.9829C220.328 10.3465 216.623 8.49466 213.85 8.49466C209.869 8.49466 206.717 11.1378 206.886 16.1201V27.3437H211.899V14.9511Z" fill="#1AA4D6"/>
<path d="M82.4466 9.00392C78.2516 9.00392 76.2605 11.745 76.2605 16.4096V20.2928C76.2605 24.9581 78.2516 27.7049 82.4466 27.7049C86.6424 27.7049 88.6328 24.9581 88.6328 20.2928V16.4096C88.6328 11.7446 86.6424 9.00392 82.4466 9.00392ZM82.4466 25.9913C78.9275 25.9913 78.3944 23.038 78.3944 18.3328C78.3944 13.6693 78.9279 10.7134 82.4466 10.7134C85.9684 10.7134 86.4989 13.6693 86.4989 18.3328C86.4985 23.038 85.968 25.9913 82.4466 25.9913Z" fill="#1AA4D6"/>
<path d="M117.976 9.00392C113.782 9.00392 111.792 11.745 111.792 16.4096V20.2928C111.792 24.9581 113.782 27.7049 117.976 27.7049C122.173 27.7049 124.163 24.9581 124.163 20.2928V16.4096C124.163 11.7446 122.173 9.00392 117.976 9.00392ZM117.976 25.9913C114.457 25.9913 113.924 23.038 113.924 18.3328C113.924 13.6693 114.457 10.7134 117.976 10.7134C121.496 10.7134 122.029 13.6693 122.029 18.3328C122.029 23.038 121.496 25.9913 117.976 25.9913Z" fill="#1AA4D6"/>
<path d="M203.753 9.35695H198.74V27.3436H203.753V9.35695Z" fill="#1AA4D6"/>
<path d="M24.0477 0H3.50208C1.57353 0 0 1.57739 0 3.50663V24.0898C0 26.0167 1.57315 27.5972 3.50208 27.5972H24.0477C25.9736 27.5972 27.5468 26.0167 27.5468 24.0898V3.50663C27.5468 1.57739 25.9736 0 24.0477 0ZM15.1253 23.3569H10.912V12.8025H9.81286H8.71294V23.3569H4.50159V7.77652C4.50159 4.72877 6.27024 3.19768 9.81286 3.18363H9.85833C13.3706 3.18363 15.1256 4.71776 15.1256 7.77652L15.1253 23.3569ZM25.0075 23.3463H21.9366C18.3674 23.3463 16.5791 21.8152 16.5776 18.7534V3.2584L18.3129 3.26789C20.0978 3.329 20.8014 4.44904 20.7923 5.68788V18.134C20.7923 20.4712 21.0746 21.6391 21.9676 21.6391H25.0071L25.0075 23.3463Z" fill="#1AA4D6"/>
<path d="M9.85803 4.7667L9.81256 4.76898C9.28212 4.77923 8.95741 5.01644 8.83806 5.48101C8.7547 5.78996 8.71265 6.66709 8.71265 8.11847V11.0349H9.81256H10.9117V8.11847C10.9117 6.68834 10.8723 5.81045 10.7871 5.48101C10.6848 5.00392 10.3748 4.7667 9.85803 4.7667Z" fill="#1AA4D6"/>
<path d="M41.6203 1.62902L33.5098 27.3437H35.7873L37.8151 20.5794H47.8769L49.938 27.3437H52.3205L44.3206 1.62902C44.0823 0.298716 42.0768 0.00115162 41.6203 1.62902ZM38.4899 18.6551L42.4015 5.5486C42.8676 3.98297 42.716 3.51157 43.2559 5.31442L47.2718 18.6551H38.4899Z" fill="#1AA4D6"/>
<path d="M71.5637 4.72876L69.4298 4.76482V9.35695H66.5491V11.0672H69.4298V23.9235C69.4298 26.1336 70.2827 27.4222 73.1626 27.4222C73.8382 27.4222 74.5497 27.3861 75.1881 27.3099V25.4577C74.7274 25.5283 74.2303 25.5632 73.5172 25.5632C71.8122 25.5632 71.5637 24.9912 71.5637 22.608V11.0672H75.1881V9.35695H71.5637V4.72876Z" fill="#1AA4D6"/>
<path d="M59.9655 9.00093C56.0088 9.02522 54.1802 11.7321 54.1567 14.4801V27.3436H56.2899V16.0529C56.2899 12.0289 58.0119 10.7112 59.9844 10.7112C62.4737 10.7112 63.4717 12.6711 63.4717 14.7719V27.3436H65.6049V14.6649C65.6049 12.3128 64.5917 9.00093 59.9655 9.00093Z" fill="#1AA4D6"/>
<path d="M97.005 9.00093C93.0464 9.02522 91.2194 11.7321 91.197 14.4801V27.3436H93.3287V16.0529C93.3287 12.0289 95.0499 10.7112 97.0232 10.7112C99.5133 10.7112 100.512 12.6711 100.512 14.7719V27.3436H102.645V14.6649C102.645 12.3128 101.632 9.00093 97.005 9.00093Z" fill="#1AA4D6"/>
<path d="M140.097 20.7157V1.62904H134.726V23.2958C135.047 25.7196 136.225 27.0693 138.259 27.3433H148.131V23.0707H142.523C141.18 23.0381 140.369 22.254 140.097 20.7157Z" fill="#1AA4D6"/>
<path d="M195.316 9.47009H190.301V21.8653C190.301 23.467 190.018 24.7134 188.419 24.7134C186.818 24.7134 186.534 23.467 186.534 21.8653V9.47009H181.785V22.8328C181.874 26.47 185.582 28.3206 188.353 28.3206C192.334 28.3206 195.485 25.6771 195.316 20.6982V9.47009Z" fill="#1AA4D6"/>
<path d="M170.113 9.00089C166.762 9.95659 165.636 12.5178 165.272 15.26C164.736 19.2695 164.19 27.7053 170.005 27.7053C171.819 27.7053 173.061 27.1679 174.093 25.6337H174.165V35.0791H179.178V17.0947C179.063 12.2342 176.199 7.81595 170.113 9.00089ZM172.14 24.6025C170.325 24.6025 170.005 22.715 170.005 18.1897C170.005 14.5927 169.97 12.1006 172.14 12.1006C174.201 12.1006 174.166 14.5927 174.166 18.1897C174.166 22.715 173.847 24.6025 172.14 24.6025Z" fill="#1AA4D6"/>
<path d="M157.862 21.8653C157.862 23.467 157.578 24.7134 155.98 24.7134C154.377 24.7134 154.094 23.467 154.094 21.8653V9.47009H149.344V22.8328C149.434 26.47 153.14 28.3206 155.911 28.3206C159.894 28.3206 163.047 25.6771 162.876 20.6982V9.47009H157.862V21.8653Z" fill="#1AA4D6"/>
</svg>
