<svg width="18" height="18" viewBox="0 0 18 18" fill="none" xmlns="http://www.w3.org/2000/svg">
<path d="M17.31 9.29904C17.245 9.10364 17.245 8.89343 17.31 8.69875L17.9499 6.81944C18.0846 6.41974 17.936 5.98008 17.5793 5.73359L15.907 4.57004C15.7345 4.45087 15.6037 4.2799 15.5387 4.08523L14.8987 2.2037C14.7641 1.804 14.3741 1.53309 13.9322 1.53309H11.8661C11.6525 1.53309 11.442 1.46869 11.2679 1.3473L9.59644 0.18597C9.24202 -0.06199 8.75838 -0.06199 8.40398 0.18597L6.7302 1.3473C6.55764 1.46869 6.34793 1.53309 6.13358 1.53309H4.06523C3.62569 1.53309 3.23492 1.804 3.10027 2.20591L2.46031 4.08523C2.39531 4.28062 2.26453 4.45087 2.08965 4.57226L0.419733 5.73359C0.0629956 5.98008 -0.0855787 6.41974 0.0490692 6.81944L0.689028 8.69875C0.754029 8.89415 0.754029 9.10436 0.689028 9.29904L0.0506144 11.1806C-0.0840316 11.5803 0.0645432 12.0199 0.421278 12.2664L2.09351 13.4277C2.26607 13.5491 2.39452 13.7194 2.46186 13.9148L3.0995 15.7941C3.23647 16.196 3.62648 16.4669 4.066 16.4669H6.13376C6.34733 16.4669 6.5555 16.5313 6.73038 16.6505L8.40416 17.814C8.75858 18.062 9.24222 18.062 9.59661 17.814L11.2704 16.6505C11.443 16.5313 11.6527 16.4669 11.867 16.4669H13.9348C14.3743 16.4669 14.7651 16.196 14.8997 15.7941L15.5397 13.9148C15.6047 13.7194 15.7355 13.5491 15.908 13.4277L17.5803 12.2664C17.937 12.0199 18.0856 11.5803 17.9509 11.1806L17.31 9.29904ZM13.156 7.12962C13.156 7.3798 13.0531 7.61444 12.869 7.7906L8.96185 11.5255C8.78541 11.6943 8.53625 11.7905 8.27468 11.7905C8.01313 11.7905 7.76164 11.6936 7.5852 11.5255L5.12679 9.17839C4.74838 8.81644 4.74838 8.22506 5.12446 7.85941C5.49513 7.50486 6.13895 7.50486 6.5073 7.85719L8.2724 9.54554L11.4875 6.47076C11.8582 6.12215 12.5036 6.12215 12.8681 6.47076C13.0522 6.64692 13.156 6.88166 13.156 7.12962Z" fill="#1AA4D6"/>
</svg>
