<svg width="18" height="18" viewBox="0 0 18 18" fill="none" xmlns="http://www.w3.org/2000/svg">
<path d="M9 0C4.03714 0 0 4.03714 0 9C0 13.9629 4.03714 18 9 18C13.9629 18 18 13.9629 18 9C18 4.03714 13.9629 0 9 0ZM12.6708 11.7578C12.9215 12.0085 12.9215 12.42 12.6708 12.6707C12.5422 12.7928 12.3815 12.8571 12.2143 12.8571C12.0472 12.8571 11.8865 12.7928 11.7579 12.6707L9.00008 9.90627L6.24228 12.6707C6.1137 12.7928 5.953 12.8571 5.78584 12.8571C5.61867 12.8571 5.45797 12.7928 5.3294 12.6707C5.07867 12.4199 5.07867 12.0085 5.3294 11.7578L8.09379 9L5.3294 6.24219C5.07867 5.99147 5.07867 5.58004 5.3294 5.32934C5.58012 5.07863 5.99155 5.07861 6.24226 5.32934L9.00006 8.09373L11.7579 5.32934C12.0086 5.07861 12.42 5.07861 12.6707 5.32934C12.9214 5.58006 12.9214 5.99149 12.6707 6.24219L9.90634 9L12.6708 11.7578Z" fill="#FF3737"/>
</svg>
