<svg width="87" height="81" viewBox="0 0 87 81" fill="none" xmlns="http://www.w3.org/2000/svg">
<path d="M0 52.2C0 55.6611 1.37491 58.9804 3.82226 61.4277C6.26961 63.8751 9.58892 65.25 13.05 65.25H25.404C26.0574 65.253 26.7017 65.4032 27.2891 65.6893C27.8765 65.9755 28.3919 66.3903 28.797 66.903L36.714 76.7775C37.5292 77.7936 38.5622 78.6137 39.7367 79.1772C40.9112 79.7407 42.1973 80.0332 43.5 80.0332C44.8027 80.0332 46.0888 79.7407 47.2633 79.1772C48.4378 78.6137 49.4708 77.7936 50.286 76.7775L57.333 68.0775C57.7465 67.6395 58.0645 67.1203 58.2668 66.553C58.4692 65.9856 58.5515 65.3824 58.5086 64.7816C58.4657 64.1808 58.2985 63.5954 58.0175 63.0626C57.7365 62.5297 57.348 62.0611 56.8764 61.6863C56.4049 61.3115 55.8606 61.0387 55.2782 60.8852C54.6957 60.7317 54.0877 60.7008 53.4927 60.7946C52.8976 60.8883 52.3286 61.1046 51.8215 61.4298C51.3145 61.7549 50.8805 62.1819 50.547 62.6835L43.5 71.34L35.583 61.4655C34.3634 59.9355 32.8153 58.6993 31.0533 57.8484C29.2914 56.9976 27.3606 56.5538 25.404 56.55H13.05C11.8963 56.55 10.7899 56.0917 9.97409 55.2759C9.1583 54.4601 8.7 53.3537 8.7 52.2V13.05C8.7 11.8963 9.1583 10.7899 9.97409 9.97409C10.7899 9.1583 11.8963 8.7 13.05 8.7H73.95C75.1037 8.7 76.2101 9.1583 77.0259 9.97409C77.8417 10.7899 78.3 11.8963 78.3 13.05V52.2C78.3 53.3537 77.8417 54.4601 77.0259 55.2759C76.2101 56.0917 75.1037 56.55 73.95 56.55H69.6C68.4463 56.55 67.3399 57.0083 66.5241 57.8241C65.7083 58.6399 65.25 59.7463 65.25 60.9C65.25 62.0537 65.7083 63.1601 66.5241 63.9759C67.3399 64.7917 68.4463 65.25 69.6 65.25H73.95C77.4111 65.25 80.7304 63.8751 83.1777 61.4277C85.6251 58.9804 87 55.6611 87 52.2V13.05C87 9.58892 85.6251 6.26961 83.1777 3.82226C80.7304 1.37491 77.4111 0 73.95 0H13.05C9.58892 0 6.26961 1.37491 3.82226 3.82226C1.37491 6.26961 0 9.58892 0 13.05V52.2Z" fill="#1AA4D6"/>
<path d="M60.9001 22.4895C60.085 21.6794 58.9825 21.2246 57.8333 21.2246C56.6841 21.2246 55.5816 21.6794 54.7666 22.4895L42.0646 35.1915L36.4096 29.5365C35.6028 28.778 34.5371 28.3557 33.4298 28.3557C32.3225 28.3557 31.2568 28.778 30.4501 29.5365C30.0423 29.9409 29.7187 30.422 29.4979 30.9521C29.277 31.4822 29.1633 32.0508 29.1633 32.625C29.1633 33.1993 29.277 33.7679 29.4979 34.298C29.7187 34.828 30.0423 35.3092 30.4501 35.7135L39.1501 44.4135C39.5565 44.8167 40.0386 45.1357 40.5686 45.3521C41.0986 45.5686 41.6661 45.6784 42.2386 45.675C43.3797 45.6702 44.4733 45.2172 45.2836 44.4135L60.9001 28.623C61.7102 27.808 62.165 26.7055 62.165 25.5563C62.165 24.4071 61.7102 23.3046 60.9001 22.4895Z" fill="#1AA4D6"/>
</svg>
