<svg width="63" height="63" viewBox="0 0 63 63" fill="none" xmlns="http://www.w3.org/2000/svg">
<path d="M51.1705 9.92686H35.0906C33.7304 7.35106 31.785 5.13024 29.4107 3.44286C27.0363 1.75549 24.2992 0.648612 21.4194 0.211184C18.5396 -0.226244 15.5973 0.0179736 12.829 0.924213C10.0606 1.83045 7.54352 3.37344 5.47985 5.42919C3.41618 7.48493 1.86352 9.9961 0.946634 12.7609C0.0297514 15.5257 -0.225785 18.467 0.200561 21.3485C0.626907 24.23 1.72324 26.9714 3.40147 29.3522C5.0797 31.733 7.29302 33.687 9.86357 35.057V38.2458C9.84751 41.2046 10.9466 44.0609 12.942 46.2457C14.9374 48.4305 17.6826 49.7835 20.6307 50.0351C20.7767 50.049 20.9127 50.1153 21.0135 50.2218L32.7446 61.9663C33.202 62.4282 33.7865 62.7438 34.4236 62.873C35.0608 63.0022 35.722 62.9392 36.3233 62.6919C36.9246 62.4447 37.4389 62.0244 37.8009 61.4844C38.1629 60.9443 38.3563 60.3089 38.3565 59.6588V50.7447C38.3556 50.6575 38.3721 50.5709 38.405 50.4901C38.4379 50.4093 38.4867 50.3359 38.5484 50.2743C38.6101 50.2126 38.6835 50.1638 38.7643 50.1309C38.845 50.0979 38.9316 50.0814 39.0188 50.0824H51.1705C54.3078 50.0782 57.3153 48.8296 59.5331 46.6105C61.7509 44.3914 62.9977 41.3831 63 38.2458V21.7627C62.9975 18.6255 61.7506 15.6174 59.5328 13.3985C57.3151 11.1796 54.3077 9.93103 51.1705 9.92686ZM3.93502 18.6252C3.93502 15.7198 4.79655 12.8797 6.41066 10.464C8.02476 8.04828 10.319 6.16545 13.0031 5.05359C15.6873 3.94172 18.6409 3.65077 21.4904 4.21752C24.34 4.78426 26.9574 6.18326 29.0119 8.23759C31.0663 10.2919 32.4655 12.9093 33.0324 15.7588C33.5993 18.6083 33.3085 21.562 32.1968 24.2462C31.085 26.9304 29.2023 29.2247 26.7867 30.8389C24.3711 32.4532 21.531 33.3149 18.6257 33.315C14.7308 33.3111 10.9966 31.7621 8.24247 29.0081C5.48832 26.2541 3.93919 22.52 3.93502 18.6252ZM59.0623 38.2458C59.0611 40.3388 58.2297 42.3459 56.7505 43.8267C55.2713 45.3075 53.2651 46.1412 51.172 46.1447H39.0188C37.7992 46.146 36.6299 46.631 35.7675 47.4934C34.9051 48.3558 34.4201 49.5251 34.4188 50.7447V58.0688L23.8131 47.4504C23.059 46.6834 22.0571 46.209 20.9859 46.1116C19.0185 45.9439 17.1865 45.0411 15.8549 43.583C14.5234 42.1249 13.7901 40.2187 13.8012 38.2442V36.614C16.9544 37.4605 20.2747 37.4632 23.4293 36.6218C26.5839 35.7805 29.4618 34.1246 31.7746 31.8202C34.0874 29.5159 35.7538 26.644 36.6068 23.4926C37.4597 20.3411 37.4691 17.0208 36.6342 13.8645H51.1705C53.2636 13.8677 55.2701 14.701 56.7496 16.1817C58.2291 17.6624 59.0609 19.6695 59.0623 21.7627V38.2458Z" fill="#1AA4D6"/>
<path d="M18.6258 28.2087C19.7132 28.2087 20.5946 27.3272 20.5946 26.2398C20.5946 25.1525 19.7132 24.271 18.6258 24.271C17.5385 24.271 16.657 25.1525 16.657 26.2398C16.657 27.3272 17.5385 28.2087 18.6258 28.2087Z" fill="#1AA4D6"/>
<path d="M18.6131 21.6611C19.1353 21.6611 19.6361 21.4537 20.0053 21.0844C20.3745 20.7152 20.582 20.2144 20.582 19.6923V10.7231C20.582 10.2009 20.3745 9.70011 20.0053 9.33088C19.6361 8.96166 19.1353 8.75423 18.6131 8.75423C18.091 8.75423 17.5902 8.96166 17.2209 9.33088C16.8517 9.70011 16.6443 10.2009 16.6443 10.7231V19.6923C16.6443 20.2144 16.8517 20.7152 17.2209 21.0844C17.5902 21.4537 18.091 21.6611 18.6131 21.6611Z" fill="#1AA4D6"/>
</svg>
