<svg width="12" height="6" viewBox="0 0 12 6" fill="none" xmlns="http://www.w3.org/2000/svg">
<path d="M5.66132 5.98023C5.88005 5.95909 6.08688 5.87078 6.25343 5.72742L10.7242 1.89527C10.8356 1.80603 10.9279 1.69532 10.9956 1.56971C11.0633 1.44409 11.105 1.30615 11.1184 1.16408C11.1317 1.02201 11.1163 0.87871 11.0732 0.742693C11.03 0.606677 10.96 0.480727 10.8672 0.372321C10.7744 0.263915 10.6608 0.175261 10.533 0.111645C10.4053 0.0480296 10.2661 0.0107441 10.1237 0.00200063C9.98124 -0.00674285 9.83851 0.0132329 9.70396 0.0607472C9.5694 0.108261 9.44578 0.182352 9.34042 0.278594L5.56151 3.51862L1.7826 0.278594C1.67725 0.182352 1.55362 0.108261 1.41907 0.0607472C1.28452 0.0132329 1.14178 -0.00674285 0.999356 0.00200063C0.856928 0.0107441 0.717712 0.0480296 0.589981 0.111645C0.46225 0.175261 0.348612 0.263915 0.25582 0.372321C0.163029 0.480727 0.0929783 0.606677 0.0498317 0.742693C0.00668514 0.87871 -0.00867653 1.02201 0.00465956 1.16408C0.0179957 1.30615 0.0597571 1.44409 0.127462 1.56971C0.195168 1.69532 0.287435 1.80603 0.398779 1.89527L4.8696 5.72742C4.97787 5.8205 5.10375 5.89084 5.23977 5.93427C5.37578 5.9777 5.51914 5.99334 5.66132 5.98023Z" fill="#1AA4D6"/>
</svg>
