<svg width="10" height="12" viewBox="0 0 10 12" fill="none" xmlns="http://www.w3.org/2000/svg">
<path d="M8.54706 10.3016L9.27878 2.64935H9.55294C9.80034 2.64935 10 2.44055 10 2.18182C10 1.92309 9.80034 1.71429 9.55294 1.71429H7.16103V1.28754C7.16103 0.578322 6.60978 0 5.92988 0H4.07012C3.39196 0 2.83897 0.576499 2.83897 1.28754V1.71429H0.447058C0.199656 1.71429 0 1.92309 0 2.18182C0 2.44055 0.199656 2.64935 0.447058 2.64935H0.721224L1.45294 10.3016C1.54549 11.2695 2.31737 12 3.24698 12H6.75192C7.68329 12 8.45401 11.2689 8.54596 10.3016H8.54706ZM3.7324 1.28758C3.7324 1.09278 3.88316 0.935112 4.06943 0.935112H5.92919C6.11547 0.935112 6.26623 1.09278 6.26623 1.28758V1.71433H3.7329V1.28758H3.7324ZM2.34233 10.2078L1.61935 2.64935H8.3805L7.65752 10.2078C7.61154 10.6954 7.2221 11.0649 6.75293 11.0649H3.248C2.77882 11.0649 2.38939 10.6972 2.3434 10.2078H2.34233Z" fill="#1AA4D6"/>
</svg>
