<svg width="16" height="16" viewBox="0 0 16 16" fill="none" xmlns="http://www.w3.org/2000/svg">
<path d="M16 10.9993V12.9996C15.9991 13.7951 15.6828 14.5577 15.1204 15.1202C14.5579 15.6827 13.7954 15.9991 13 16H3C2.20462 15.9991 1.44206 15.6827 0.879639 15.1202C0.317218 14.5577 0.000868196 13.7951 0 12.9996V10.9993C0 10.734 0.105357 10.4796 0.292893 10.292C0.48043 10.1045 0.734784 9.99911 1 9.99911C1.26522 9.99911 1.51957 10.1045 1.70711 10.292C1.89464 10.4796 2 10.734 2 10.9993V12.9996C2.00026 13.2647 2.10571 13.519 2.29319 13.7065C2.48066 13.894 2.73486 13.9994 3 13.9997H13C13.2651 13.9994 13.5193 13.894 13.7068 13.7065C13.8943 13.519 13.9997 13.2647 14 12.9996V10.9993C14 10.734 14.1054 10.4796 14.2929 10.292C14.4804 10.1045 14.7348 9.99911 15 9.99911C15.2652 9.99911 15.5196 10.1045 15.7071 10.292C15.8946 10.4796 16 10.734 16 10.9993ZM5.686 4.55396L7 3.31494V10.9993C7 11.2645 7.10536 11.5189 7.29289 11.7065C7.48043 11.894 7.73478 11.9994 8 11.9994C8.26522 11.9994 8.51957 11.894 8.70711 11.7065C8.89464 11.5189 9 11.2645 9 10.9993V3.31494L10.314 4.55396C10.5075 4.73286 10.7638 4.82816 11.0271 4.81912C11.2905 4.81008 11.5396 4.69745 11.7204 4.5057C11.9012 4.31394 11.999 4.05858 11.9925 3.7951C11.9861 3.53163 11.8759 3.28135 11.686 3.09867L8.686 0.270117C8.63969 0.234462 8.59021 0.203136 8.53817 0.176533C8.48735 0.136767 8.4327 0.102167 8.37502 0.0732474C8.13451 -0.0244158 7.86541 -0.0244158 7.6249 0.0732474C7.56722 0.102167 7.51257 0.136767 7.46175 0.176533C7.40971 0.203136 7.36023 0.234462 7.31392 0.270117L4.31392 3.09867C4.12296 3.28112 4.01191 3.53171 4.00501 3.79576C3.99812 4.0598 4.09594 4.31585 4.27712 4.50802C4.4583 4.70019 4.70814 4.81288 4.97209 4.82149C5.23605 4.83009 5.49269 4.73392 5.686 4.55396Z" fill="#1AA4D6"/>
</svg>
